<mxfile host="app.diagrams.net" agent="Mozilla/5.0 (X11; Linux x86_64; rv:137.0) Gecko/20100101 Firefox/137.0" version="26.2.12">
  <diagram name="Page-1" id="GqUmpZvGIh4dHvEs5y8a">
    <mxGraphModel dx="-1129" dy="334" grid="1" gridSize="10" guides="1" tooltips="1" connect="1" arrows="1" fold="1" page="1" pageScale="1" pageWidth="850" pageHeight="1100" math="0" shadow="0">
      <root>
        <mxCell id="0" />
        <mxCell id="1" parent="0" />
        <mxCell id="Q4PtB8VEEmsm6MJClJGm-413" style="edgeStyle=orthogonalEdgeStyle;rounded=0;orthogonalLoop=1;jettySize=auto;html=1;entryX=0.5;entryY=0;entryDx=0;entryDy=0;endArrow=none;startFill=0;" parent="1" source="Q4PtB8VEEmsm6MJClJGm-177" target="Q4PtB8VEEmsm6MJClJGm-412" edge="1">
          <mxGeometry relative="1" as="geometry" />
        </mxCell>
        <mxCell id="Q4PtB8VEEmsm6MJClJGm-177" value="CompaÃ±ia" style="rounded=0;whiteSpace=wrap;html=1;" parent="1" vertex="1">
          <mxGeometry x="2304" y="253.00025403784434" width="160" height="60" as="geometry" />
        </mxCell>
        <mxCell id="Q4PtB8VEEmsm6MJClJGm-481" style="edgeStyle=orthogonalEdgeStyle;rounded=0;orthogonalLoop=1;jettySize=auto;html=1;entryX=0;entryY=0.5;entryDx=0;entryDy=0;endArrow=none;startFill=0;" parent="1" source="Q4PtB8VEEmsm6MJClJGm-178" target="Q4PtB8VEEmsm6MJClJGm-479" edge="1">
          <mxGeometry relative="1" as="geometry" />
        </mxCell>
        <mxCell id="Q4PtB8VEEmsm6MJClJGm-178" value="Clientes" style="rounded=0;whiteSpace=wrap;html=1;" parent="1" vertex="1">
          <mxGeometry x="2050" y="479.26025403784433" width="160" height="60" as="geometry" />
        </mxCell>
        <mxCell id="Q4PtB8VEEmsm6MJClJGm-410" style="edgeStyle=orthogonalEdgeStyle;rounded=0;orthogonalLoop=1;jettySize=auto;html=1;entryX=0;entryY=0.5;entryDx=0;entryDy=0;endArrow=none;startFill=0;" parent="1" source="Q4PtB8VEEmsm6MJClJGm-179" target="Q4PtB8VEEmsm6MJClJGm-397" edge="1">
          <mxGeometry relative="1" as="geometry" />
        </mxCell>
        <mxCell id="Q4PtB8VEEmsm6MJClJGm-411" style="edgeStyle=orthogonalEdgeStyle;rounded=0;orthogonalLoop=1;jettySize=auto;html=1;exitX=0;exitY=0.25;exitDx=0;exitDy=0;entryX=0.5;entryY=1;entryDx=0;entryDy=0;endArrow=none;startFill=0;" parent="1" source="Q4PtB8VEEmsm6MJClJGm-179" target="Q4PtB8VEEmsm6MJClJGm-412" edge="1">
          <mxGeometry relative="1" as="geometry">
            <mxPoint x="2380" y="495" as="targetPoint" />
          </mxGeometry>
        </mxCell>
        <mxCell id="Q4PtB8VEEmsm6MJClJGm-441" style="edgeStyle=orthogonalEdgeStyle;rounded=0;orthogonalLoop=1;jettySize=auto;html=1;exitX=0;exitY=0.75;exitDx=0;exitDy=0;endArrow=none;endFill=1;startFill=0;" parent="1" source="Q4PtB8VEEmsm6MJClJGm-179" edge="1">
          <mxGeometry relative="1" as="geometry">
            <mxPoint x="2480" y="660" as="targetPoint" />
          </mxGeometry>
        </mxCell>
        <mxCell id="Q4PtB8VEEmsm6MJClJGm-475" style="edgeStyle=orthogonalEdgeStyle;rounded=0;orthogonalLoop=1;jettySize=auto;html=1;exitX=1;exitY=0.75;exitDx=0;exitDy=0;entryX=0.5;entryY=0;entryDx=0;entryDy=0;endArrow=none;startFill=0;" parent="1" source="Q4PtB8VEEmsm6MJClJGm-179" target="Q4PtB8VEEmsm6MJClJGm-472" edge="1">
          <mxGeometry relative="1" as="geometry" />
        </mxCell>
        <mxCell id="Q4PtB8VEEmsm6MJClJGm-480" style="edgeStyle=orthogonalEdgeStyle;rounded=0;orthogonalLoop=1;jettySize=auto;html=1;entryX=1;entryY=0.5;entryDx=0;entryDy=0;endArrow=none;startFill=0;" parent="1" source="Q4PtB8VEEmsm6MJClJGm-179" target="Q4PtB8VEEmsm6MJClJGm-479" edge="1">
          <mxGeometry relative="1" as="geometry" />
        </mxCell>
        <mxCell id="Q4PtB8VEEmsm6MJClJGm-179" value="Polizas" style="rounded=0;whiteSpace=wrap;html=1;" parent="1" vertex="1">
          <mxGeometry x="2521" y="479.5802540378443" width="160" height="60" as="geometry" />
        </mxCell>
        <mxCell id="Q4PtB8VEEmsm6MJClJGm-181" value="" style="group" parent="1" vertex="1" connectable="0">
          <mxGeometry x="2356" y="225.00152422706628" width="8" height="28" as="geometry" />
        </mxCell>
        <mxCell id="Q4PtB8VEEmsm6MJClJGm-182" value="" style="ellipse;whiteSpace=wrap;html=1;aspect=fixed;fillColor=light-dark(#FFFFFF,#FFFFFF);" parent="Q4PtB8VEEmsm6MJClJGm-181" vertex="1">
          <mxGeometry width="8" height="8" as="geometry" />
        </mxCell>
        <mxCell id="Q4PtB8VEEmsm6MJClJGm-183" style="edgeStyle=orthogonalEdgeStyle;rounded=0;orthogonalLoop=1;jettySize=auto;html=1;endArrow=none;startFill=0;" parent="Q4PtB8VEEmsm6MJClJGm-181" edge="1">
          <mxGeometry relative="1" as="geometry">
            <mxPoint x="4" y="28" as="targetPoint" />
            <mxPoint x="4" y="8" as="sourcePoint" />
          </mxGeometry>
        </mxCell>
        <mxCell id="Q4PtB8VEEmsm6MJClJGm-184" value="&lt;font style=&quot;font-size: 8px;&quot;&gt;nombre&lt;/font&gt;" style="text;html=1;align=center;verticalAlign=middle;resizable=0;points=[];autosize=1;strokeColor=none;fillColor=none;rotation=-60;" parent="1" vertex="1">
          <mxGeometry x="2338" y="192.00152422706637" width="50" height="30" as="geometry" />
        </mxCell>
        <mxCell id="Q4PtB8VEEmsm6MJClJGm-185" value="" style="group" parent="1" vertex="1" connectable="0">
          <mxGeometry x="2376" y="225.00152422706628" width="8" height="28" as="geometry" />
        </mxCell>
        <mxCell id="Q4PtB8VEEmsm6MJClJGm-186" value="" style="ellipse;whiteSpace=wrap;html=1;aspect=fixed;" parent="Q4PtB8VEEmsm6MJClJGm-185" vertex="1">
          <mxGeometry width="8" height="8" as="geometry" />
        </mxCell>
        <mxCell id="Q4PtB8VEEmsm6MJClJGm-187" style="edgeStyle=orthogonalEdgeStyle;rounded=0;orthogonalLoop=1;jettySize=auto;html=1;endArrow=none;startFill=0;" parent="Q4PtB8VEEmsm6MJClJGm-185" edge="1">
          <mxGeometry relative="1" as="geometry">
            <mxPoint x="4" y="28" as="targetPoint" />
            <mxPoint x="4" y="8" as="sourcePoint" />
          </mxGeometry>
        </mxCell>
        <mxCell id="Q4PtB8VEEmsm6MJClJGm-188" value="&lt;font style=&quot;font-size: 8px;&quot;&gt;cuit&lt;/font&gt;" style="text;html=1;align=center;verticalAlign=middle;resizable=0;points=[];autosize=1;strokeColor=none;fillColor=none;rotation=-60;" parent="1" vertex="1">
          <mxGeometry x="2362" y="195.54152422706636" width="40" height="30" as="geometry" />
        </mxCell>
        <mxCell id="Q4PtB8VEEmsm6MJClJGm-201" value="" style="group" parent="1" vertex="1" connectable="0">
          <mxGeometry x="2396" y="225.00152422706628" width="8" height="28" as="geometry" />
        </mxCell>
        <mxCell id="Q4PtB8VEEmsm6MJClJGm-202" value="" style="ellipse;whiteSpace=wrap;html=1;aspect=fixed;" parent="Q4PtB8VEEmsm6MJClJGm-201" vertex="1">
          <mxGeometry width="8" height="8" as="geometry" />
        </mxCell>
        <mxCell id="Q4PtB8VEEmsm6MJClJGm-203" style="edgeStyle=orthogonalEdgeStyle;rounded=0;orthogonalLoop=1;jettySize=auto;html=1;endArrow=none;startFill=0;" parent="Q4PtB8VEEmsm6MJClJGm-201" edge="1">
          <mxGeometry relative="1" as="geometry">
            <mxPoint x="4" y="28" as="targetPoint" />
            <mxPoint x="4" y="8" as="sourcePoint" />
          </mxGeometry>
        </mxCell>
        <mxCell id="Q4PtB8VEEmsm6MJClJGm-204" value="&lt;font style=&quot;font-size: 8px;&quot;&gt;comision&lt;/font&gt;" style="text;html=1;align=center;verticalAlign=middle;resizable=0;points=[];autosize=1;strokeColor=none;fillColor=none;rotation=-60;" parent="1" vertex="1">
          <mxGeometry x="2376" y="186.54152422706636" width="60" height="30" as="geometry" />
        </mxCell>
        <mxCell id="Q4PtB8VEEmsm6MJClJGm-209" value="" style="group" parent="1" vertex="1" connectable="0">
          <mxGeometry x="2106.5" y="451.26152422706633" width="8" height="28" as="geometry" />
        </mxCell>
        <mxCell id="Q4PtB8VEEmsm6MJClJGm-210" value="" style="ellipse;whiteSpace=wrap;html=1;aspect=fixed;fillColor=light-dark(#FFFFFF,#FFFFFF);" parent="Q4PtB8VEEmsm6MJClJGm-209" vertex="1">
          <mxGeometry width="8" height="8" as="geometry" />
        </mxCell>
        <mxCell id="Q4PtB8VEEmsm6MJClJGm-211" style="edgeStyle=orthogonalEdgeStyle;rounded=0;orthogonalLoop=1;jettySize=auto;html=1;endArrow=none;startFill=0;" parent="Q4PtB8VEEmsm6MJClJGm-209" edge="1">
          <mxGeometry relative="1" as="geometry">
            <mxPoint x="4" y="28" as="targetPoint" />
            <mxPoint x="4" y="8" as="sourcePoint" />
          </mxGeometry>
        </mxCell>
        <mxCell id="Q4PtB8VEEmsm6MJClJGm-212" value="&lt;font style=&quot;font-size: 8px;&quot;&gt;id&lt;/font&gt;" style="text;html=1;align=center;verticalAlign=middle;resizable=0;points=[];autosize=1;strokeColor=none;fillColor=none;rotation=-60;" parent="1" vertex="1">
          <mxGeometry x="2095" y="424.80152422706635" width="30" height="30" as="geometry" />
        </mxCell>
        <mxCell id="Q4PtB8VEEmsm6MJClJGm-213" value="" style="group" parent="1" vertex="1" connectable="0">
          <mxGeometry x="2125.5" y="451.26152422706633" width="8" height="28" as="geometry" />
        </mxCell>
        <mxCell id="Q4PtB8VEEmsm6MJClJGm-214" value="" style="ellipse;whiteSpace=wrap;html=1;aspect=fixed;" parent="Q4PtB8VEEmsm6MJClJGm-213" vertex="1">
          <mxGeometry width="8" height="8" as="geometry" />
        </mxCell>
        <mxCell id="Q4PtB8VEEmsm6MJClJGm-215" style="edgeStyle=orthogonalEdgeStyle;rounded=0;orthogonalLoop=1;jettySize=auto;html=1;endArrow=none;startFill=0;" parent="Q4PtB8VEEmsm6MJClJGm-213" edge="1">
          <mxGeometry relative="1" as="geometry">
            <mxPoint x="4" y="28" as="targetPoint" />
            <mxPoint x="4" y="8" as="sourcePoint" />
          </mxGeometry>
        </mxCell>
        <mxCell id="Q4PtB8VEEmsm6MJClJGm-216" value="&lt;font style=&quot;font-size: 8px;&quot;&gt;direccion&lt;/font&gt;" style="text;html=1;align=center;verticalAlign=middle;resizable=0;points=[];autosize=1;strokeColor=none;fillColor=none;rotation=-60;" parent="1" vertex="1">
          <mxGeometry x="2102" y="409.80152422706635" width="70" height="30" as="geometry" />
        </mxCell>
        <mxCell id="Q4PtB8VEEmsm6MJClJGm-217" value="" style="group" parent="1" vertex="1" connectable="0">
          <mxGeometry x="2145.5" y="451.26152422706633" width="8" height="28" as="geometry" />
        </mxCell>
        <mxCell id="Q4PtB8VEEmsm6MJClJGm-218" value="" style="ellipse;whiteSpace=wrap;html=1;aspect=fixed;" parent="Q4PtB8VEEmsm6MJClJGm-217" vertex="1">
          <mxGeometry width="8" height="8" as="geometry" />
        </mxCell>
        <mxCell id="Q4PtB8VEEmsm6MJClJGm-219" style="edgeStyle=orthogonalEdgeStyle;rounded=0;orthogonalLoop=1;jettySize=auto;html=1;endArrow=none;startFill=0;" parent="Q4PtB8VEEmsm6MJClJGm-217" edge="1">
          <mxGeometry relative="1" as="geometry">
            <mxPoint x="4" y="28" as="targetPoint" />
            <mxPoint x="4" y="8" as="sourcePoint" />
          </mxGeometry>
        </mxCell>
        <mxCell id="Q4PtB8VEEmsm6MJClJGm-220" value="&lt;font style=&quot;font-size: 8px;&quot;&gt;telefono&lt;/font&gt;" style="text;html=1;align=center;verticalAlign=middle;resizable=0;points=[];autosize=1;strokeColor=none;fillColor=none;rotation=-60;" parent="1" vertex="1">
          <mxGeometry x="2126.5" y="411.80152422706635" width="60" height="30" as="geometry" />
        </mxCell>
        <mxCell id="Q4PtB8VEEmsm6MJClJGm-233" value="Persona_Fisica" style="rounded=0;whiteSpace=wrap;html=1;" parent="1" vertex="1">
          <mxGeometry x="1931" y="769.0002540378443" width="160" height="60" as="geometry" />
        </mxCell>
        <mxCell id="Q4PtB8VEEmsm6MJClJGm-234" value="Persona_Juridica" style="rounded=0;whiteSpace=wrap;html=1;" parent="1" vertex="1">
          <mxGeometry x="2171" y="769.0002540378443" width="160" height="60" as="geometry" />
        </mxCell>
        <mxCell id="Q4PtB8VEEmsm6MJClJGm-238" value="" style="group" parent="1" vertex="1" connectable="0">
          <mxGeometry x="1947.5" y="740.9215242270664" width="8" height="28" as="geometry" />
        </mxCell>
        <mxCell id="Q4PtB8VEEmsm6MJClJGm-239" value="" style="ellipse;whiteSpace=wrap;html=1;aspect=fixed;fillColor=light-dark(#FFFFFF,#FFFFFF);" parent="Q4PtB8VEEmsm6MJClJGm-238" vertex="1">
          <mxGeometry width="8" height="8" as="geometry" />
        </mxCell>
        <mxCell id="Q4PtB8VEEmsm6MJClJGm-240" style="edgeStyle=orthogonalEdgeStyle;rounded=0;orthogonalLoop=1;jettySize=auto;html=1;endArrow=none;startFill=0;" parent="Q4PtB8VEEmsm6MJClJGm-238" edge="1">
          <mxGeometry relative="1" as="geometry">
            <mxPoint x="4" y="28" as="targetPoint" />
            <mxPoint x="4" y="8" as="sourcePoint" />
          </mxGeometry>
        </mxCell>
        <mxCell id="Q4PtB8VEEmsm6MJClJGm-241" value="&lt;font style=&quot;font-size: 8px;&quot;&gt;dni&lt;/font&gt;" style="text;html=1;align=center;verticalAlign=middle;resizable=0;points=[];autosize=1;strokeColor=none;fillColor=none;rotation=-60;" parent="1" vertex="1">
          <mxGeometry x="1931" y="712.2015242270663" width="40" height="30" as="geometry" />
        </mxCell>
        <mxCell id="Q4PtB8VEEmsm6MJClJGm-242" value="" style="group" parent="1" vertex="1" connectable="0">
          <mxGeometry x="1966.5" y="740.9215242270664" width="8" height="28" as="geometry" />
        </mxCell>
        <mxCell id="Q4PtB8VEEmsm6MJClJGm-243" value="" style="ellipse;whiteSpace=wrap;html=1;aspect=fixed;" parent="Q4PtB8VEEmsm6MJClJGm-242" vertex="1">
          <mxGeometry width="8" height="8" as="geometry" />
        </mxCell>
        <mxCell id="Q4PtB8VEEmsm6MJClJGm-244" style="edgeStyle=orthogonalEdgeStyle;rounded=0;orthogonalLoop=1;jettySize=auto;html=1;endArrow=none;startFill=0;" parent="Q4PtB8VEEmsm6MJClJGm-242" edge="1">
          <mxGeometry relative="1" as="geometry">
            <mxPoint x="4" y="28" as="targetPoint" />
            <mxPoint x="4" y="8" as="sourcePoint" />
          </mxGeometry>
        </mxCell>
        <mxCell id="Q4PtB8VEEmsm6MJClJGm-245" value="&lt;font style=&quot;font-size: 8px;&quot;&gt;apellido&lt;/font&gt;" style="text;html=1;align=center;verticalAlign=middle;resizable=0;points=[];autosize=1;strokeColor=none;fillColor=none;rotation=-60;" parent="1" vertex="1">
          <mxGeometry x="1947" y="702.0015242270663" width="60" height="30" as="geometry" />
        </mxCell>
        <mxCell id="Q4PtB8VEEmsm6MJClJGm-246" value="" style="group" parent="1" vertex="1" connectable="0">
          <mxGeometry x="1986.5" y="740.9215242270664" width="8" height="28" as="geometry" />
        </mxCell>
        <mxCell id="Q4PtB8VEEmsm6MJClJGm-247" value="" style="ellipse;whiteSpace=wrap;html=1;aspect=fixed;" parent="Q4PtB8VEEmsm6MJClJGm-246" vertex="1">
          <mxGeometry width="8" height="8" as="geometry" />
        </mxCell>
        <mxCell id="Q4PtB8VEEmsm6MJClJGm-248" style="edgeStyle=orthogonalEdgeStyle;rounded=0;orthogonalLoop=1;jettySize=auto;html=1;endArrow=none;startFill=0;" parent="Q4PtB8VEEmsm6MJClJGm-246" edge="1">
          <mxGeometry relative="1" as="geometry">
            <mxPoint x="4" y="28" as="targetPoint" />
            <mxPoint x="4" y="8" as="sourcePoint" />
          </mxGeometry>
        </mxCell>
        <mxCell id="Q4PtB8VEEmsm6MJClJGm-249" value="&lt;font style=&quot;font-size: 8px;&quot;&gt;nombre&lt;/font&gt;" style="text;html=1;align=center;verticalAlign=middle;resizable=0;points=[];autosize=1;strokeColor=none;fillColor=none;rotation=-60;" parent="1" vertex="1">
          <mxGeometry x="1970" y="706.0015242270663" width="50" height="30" as="geometry" />
        </mxCell>
        <mxCell id="Q4PtB8VEEmsm6MJClJGm-250" value="" style="group" parent="1" vertex="1" connectable="0">
          <mxGeometry x="2277" y="740.9215242270664" width="8" height="28" as="geometry" />
        </mxCell>
        <mxCell id="Q4PtB8VEEmsm6MJClJGm-251" value="" style="ellipse;whiteSpace=wrap;html=1;aspect=fixed;fillColor=light-dark(#FFFFFF,#FFFFFF);" parent="Q4PtB8VEEmsm6MJClJGm-250" vertex="1">
          <mxGeometry width="8" height="8" as="geometry" />
        </mxCell>
        <mxCell id="Q4PtB8VEEmsm6MJClJGm-252" style="edgeStyle=orthogonalEdgeStyle;rounded=0;orthogonalLoop=1;jettySize=auto;html=1;endArrow=none;startFill=0;" parent="Q4PtB8VEEmsm6MJClJGm-250" edge="1">
          <mxGeometry relative="1" as="geometry">
            <mxPoint x="4" y="28" as="targetPoint" />
            <mxPoint x="4" y="8" as="sourcePoint" />
          </mxGeometry>
        </mxCell>
        <mxCell id="Q4PtB8VEEmsm6MJClJGm-253" value="&lt;font style=&quot;font-size: 8px;&quot;&gt;cuit&lt;/font&gt;" style="text;html=1;align=center;verticalAlign=middle;resizable=0;points=[];autosize=1;strokeColor=none;fillColor=none;rotation=-60;" parent="1" vertex="1">
          <mxGeometry x="2262" y="712.0015242270663" width="40" height="30" as="geometry" />
        </mxCell>
        <mxCell id="Q4PtB8VEEmsm6MJClJGm-254" value="" style="group" parent="1" vertex="1" connectable="0">
          <mxGeometry x="2297" y="740.9215242270664" width="8" height="28" as="geometry" />
        </mxCell>
        <mxCell id="Q4PtB8VEEmsm6MJClJGm-255" value="" style="ellipse;whiteSpace=wrap;html=1;aspect=fixed;fillColor=light-dark(#FFFFFF,#FFFFFF);" parent="Q4PtB8VEEmsm6MJClJGm-254" vertex="1">
          <mxGeometry width="8" height="8" as="geometry" />
        </mxCell>
        <mxCell id="Q4PtB8VEEmsm6MJClJGm-256" style="edgeStyle=orthogonalEdgeStyle;rounded=0;orthogonalLoop=1;jettySize=auto;html=1;endArrow=none;startFill=0;" parent="Q4PtB8VEEmsm6MJClJGm-254" edge="1">
          <mxGeometry relative="1" as="geometry">
            <mxPoint x="4" y="28" as="targetPoint" />
            <mxPoint x="4" y="8" as="sourcePoint" />
          </mxGeometry>
        </mxCell>
        <mxCell id="Q4PtB8VEEmsm6MJClJGm-257" value="&lt;font style=&quot;font-size: 8px;&quot;&gt;razon_social&lt;/font&gt;" style="text;html=1;align=center;verticalAlign=middle;resizable=0;points=[];autosize=1;strokeColor=none;fillColor=none;rotation=-60;" parent="1" vertex="1">
          <mxGeometry x="2271" y="695.0015242270663" width="80" height="30" as="geometry" />
        </mxCell>
        <mxCell id="Q4PtB8VEEmsm6MJClJGm-280" value="" style="group" parent="1" vertex="1" connectable="0">
          <mxGeometry x="2526.5" y="451.7915242270663" width="8" height="28" as="geometry" />
        </mxCell>
        <mxCell id="Q4PtB8VEEmsm6MJClJGm-281" value="" style="ellipse;whiteSpace=wrap;html=1;aspect=fixed;fillColor=light-dark(#FFFFFF,#FFFFFF);" parent="Q4PtB8VEEmsm6MJClJGm-280" vertex="1">
          <mxGeometry width="8" height="8" as="geometry" />
        </mxCell>
        <mxCell id="Q4PtB8VEEmsm6MJClJGm-282" style="edgeStyle=orthogonalEdgeStyle;rounded=0;orthogonalLoop=1;jettySize=auto;html=1;endArrow=none;startFill=0;" parent="Q4PtB8VEEmsm6MJClJGm-280" edge="1">
          <mxGeometry relative="1" as="geometry">
            <mxPoint x="4" y="28" as="targetPoint" />
            <mxPoint x="4" y="8" as="sourcePoint" />
          </mxGeometry>
        </mxCell>
        <mxCell id="Q4PtB8VEEmsm6MJClJGm-283" value="&lt;font style=&quot;font-size: 8px;&quot;&gt;numero&lt;/font&gt;" style="text;html=1;align=center;verticalAlign=middle;resizable=0;points=[];autosize=1;strokeColor=none;fillColor=none;rotation=-60;" parent="1" vertex="1">
          <mxGeometry x="2510" y="419.3315242270663" width="50" height="30" as="geometry" />
        </mxCell>
        <mxCell id="Q4PtB8VEEmsm6MJClJGm-285" value="" style="group" parent="1" vertex="1" connectable="0">
          <mxGeometry x="2546.5" y="451.25152422706634" width="8" height="28" as="geometry" />
        </mxCell>
        <mxCell id="Q4PtB8VEEmsm6MJClJGm-286" value="" style="ellipse;whiteSpace=wrap;html=1;aspect=fixed;fillColor=light-dark(#FFFFFF,transparent);" parent="Q4PtB8VEEmsm6MJClJGm-285" vertex="1">
          <mxGeometry width="8" height="8" as="geometry" />
        </mxCell>
        <mxCell id="Q4PtB8VEEmsm6MJClJGm-287" style="edgeStyle=orthogonalEdgeStyle;rounded=0;orthogonalLoop=1;jettySize=auto;html=1;endArrow=none;startFill=0;" parent="Q4PtB8VEEmsm6MJClJGm-285" edge="1">
          <mxGeometry relative="1" as="geometry">
            <mxPoint x="4" y="28" as="targetPoint" />
            <mxPoint x="4" y="8" as="sourcePoint" />
          </mxGeometry>
        </mxCell>
        <mxCell id="Q4PtB8VEEmsm6MJClJGm-288" value="&lt;font style=&quot;font-size: 8px;&quot;&gt;monto&lt;/font&gt;" style="text;html=1;align=center;verticalAlign=middle;resizable=0;points=[];autosize=1;strokeColor=none;fillColor=none;rotation=-60;" parent="1" vertex="1">
          <mxGeometry x="2529" y="420.33152422706627" width="50" height="30" as="geometry" />
        </mxCell>
        <mxCell id="Q4PtB8VEEmsm6MJClJGm-289" value="" style="group" parent="1" vertex="1" connectable="0">
          <mxGeometry x="2566.5" y="451.25152422706634" width="8" height="28" as="geometry" />
        </mxCell>
        <mxCell id="Q4PtB8VEEmsm6MJClJGm-290" value="" style="ellipse;whiteSpace=wrap;html=1;aspect=fixed;" parent="Q4PtB8VEEmsm6MJClJGm-289" vertex="1">
          <mxGeometry width="8" height="8" as="geometry" />
        </mxCell>
        <mxCell id="Q4PtB8VEEmsm6MJClJGm-291" style="edgeStyle=orthogonalEdgeStyle;rounded=0;orthogonalLoop=1;jettySize=auto;html=1;endArrow=none;startFill=0;" parent="Q4PtB8VEEmsm6MJClJGm-289" edge="1">
          <mxGeometry relative="1" as="geometry">
            <mxPoint x="4" y="28" as="targetPoint" />
            <mxPoint x="4" y="8" as="sourcePoint" />
          </mxGeometry>
        </mxCell>
        <mxCell id="Q4PtB8VEEmsm6MJClJGm-293" value="" style="group" parent="1" vertex="1" connectable="0">
          <mxGeometry x="2586.5" y="451.25152422706634" width="8" height="28" as="geometry" />
        </mxCell>
        <mxCell id="Q4PtB8VEEmsm6MJClJGm-294" value="" style="ellipse;whiteSpace=wrap;html=1;aspect=fixed;" parent="Q4PtB8VEEmsm6MJClJGm-293" vertex="1">
          <mxGeometry width="8" height="8" as="geometry" />
        </mxCell>
        <mxCell id="Q4PtB8VEEmsm6MJClJGm-295" style="edgeStyle=orthogonalEdgeStyle;rounded=0;orthogonalLoop=1;jettySize=auto;html=1;endArrow=none;startFill=0;" parent="Q4PtB8VEEmsm6MJClJGm-293" edge="1">
          <mxGeometry relative="1" as="geometry">
            <mxPoint x="4" y="28" as="targetPoint" />
            <mxPoint x="4" y="8" as="sourcePoint" />
          </mxGeometry>
        </mxCell>
        <mxCell id="Q4PtB8VEEmsm6MJClJGm-296" value="&lt;font style=&quot;font-size: 8px;&quot;&gt;franquicia(0,1)&lt;/font&gt;" style="text;html=1;align=center;verticalAlign=middle;resizable=0;points=[];autosize=1;strokeColor=none;fillColor=none;rotation=-60;" parent="1" vertex="1">
          <mxGeometry x="2535" y="400.1215242270663" width="100" height="30" as="geometry" />
        </mxCell>
        <mxCell id="Q4PtB8VEEmsm6MJClJGm-317" value="&lt;font style=&quot;font-size: 8px;&quot;&gt;costo_mes&lt;/font&gt;" style="text;html=1;align=center;verticalAlign=middle;resizable=0;points=[];autosize=1;strokeColor=none;fillColor=none;rotation=-60;" parent="1" vertex="1">
          <mxGeometry x="2563" y="410.33152422706627" width="70" height="30" as="geometry" />
        </mxCell>
        <mxCell id="Q4PtB8VEEmsm6MJClJGm-330" value="Tarjeta" style="rounded=0;whiteSpace=wrap;html=1;" parent="1" vertex="1">
          <mxGeometry x="2880" y="479.58025403784427" width="160" height="60" as="geometry" />
        </mxCell>
        <mxCell id="Q4PtB8VEEmsm6MJClJGm-331" value="" style="group" parent="1" vertex="1" connectable="0">
          <mxGeometry x="2916.5" y="451.66152422706637" width="8" height="28" as="geometry" />
        </mxCell>
        <mxCell id="Q4PtB8VEEmsm6MJClJGm-332" value="" style="ellipse;whiteSpace=wrap;html=1;aspect=fixed;fillColor=light-dark(#FFFFFF,#FFFFFF);" parent="Q4PtB8VEEmsm6MJClJGm-331" vertex="1">
          <mxGeometry width="8" height="8" as="geometry" />
        </mxCell>
        <mxCell id="Q4PtB8VEEmsm6MJClJGm-333" style="edgeStyle=orthogonalEdgeStyle;rounded=0;orthogonalLoop=1;jettySize=auto;html=1;endArrow=none;startFill=0;" parent="Q4PtB8VEEmsm6MJClJGm-331" edge="1">
          <mxGeometry relative="1" as="geometry">
            <mxPoint x="4" y="28" as="targetPoint" />
            <mxPoint x="4" y="8" as="sourcePoint" />
          </mxGeometry>
        </mxCell>
        <mxCell id="Q4PtB8VEEmsm6MJClJGm-334" value="&lt;font style=&quot;font-size: 8px;&quot;&gt;nro&lt;/font&gt;" style="text;html=1;align=center;verticalAlign=middle;resizable=0;points=[];autosize=1;strokeColor=none;fillColor=none;rotation=-60;" parent="1" vertex="1">
          <mxGeometry x="2902" y="423.7415242270663" width="40" height="30" as="geometry" />
        </mxCell>
        <mxCell id="Q4PtB8VEEmsm6MJClJGm-335" value="" style="group" parent="1" vertex="1" connectable="0">
          <mxGeometry x="2936.5" y="451.1215242270664" width="8" height="28" as="geometry" />
        </mxCell>
        <mxCell id="Q4PtB8VEEmsm6MJClJGm-336" value="" style="ellipse;whiteSpace=wrap;html=1;aspect=fixed;fillColor=light-dark(#FFFFFF,transparent);" parent="Q4PtB8VEEmsm6MJClJGm-335" vertex="1">
          <mxGeometry width="8" height="8" as="geometry" />
        </mxCell>
        <mxCell id="Q4PtB8VEEmsm6MJClJGm-337" style="edgeStyle=orthogonalEdgeStyle;rounded=0;orthogonalLoop=1;jettySize=auto;html=1;endArrow=none;startFill=0;" parent="Q4PtB8VEEmsm6MJClJGm-335" edge="1">
          <mxGeometry relative="1" as="geometry">
            <mxPoint x="4" y="28" as="targetPoint" />
            <mxPoint x="4" y="8" as="sourcePoint" />
          </mxGeometry>
        </mxCell>
        <mxCell id="Q4PtB8VEEmsm6MJClJGm-338" value="&lt;font style=&quot;font-size: 8px;&quot;&gt;cod_seg&lt;/font&gt;" style="text;html=1;align=center;verticalAlign=middle;resizable=0;points=[];autosize=1;strokeColor=none;fillColor=none;rotation=-60;" parent="1" vertex="1">
          <mxGeometry x="2916" y="416.7415242270663" width="60" height="30" as="geometry" />
        </mxCell>
        <mxCell id="Q4PtB8VEEmsm6MJClJGm-343" value="" style="group" parent="1" vertex="1" connectable="0">
          <mxGeometry x="2956" y="451.66152422706637" width="8" height="28" as="geometry" />
        </mxCell>
        <mxCell id="Q4PtB8VEEmsm6MJClJGm-344" value="" style="ellipse;whiteSpace=wrap;html=1;aspect=fixed;fillColor=light-dark(#FFFFFF,transparent);" parent="Q4PtB8VEEmsm6MJClJGm-343" vertex="1">
          <mxGeometry width="8" height="8" as="geometry" />
        </mxCell>
        <mxCell id="Q4PtB8VEEmsm6MJClJGm-345" style="edgeStyle=orthogonalEdgeStyle;rounded=0;orthogonalLoop=1;jettySize=auto;html=1;endArrow=none;startFill=0;" parent="Q4PtB8VEEmsm6MJClJGm-343" edge="1">
          <mxGeometry relative="1" as="geometry">
            <mxPoint x="4" y="28" as="targetPoint" />
            <mxPoint x="4" y="8" as="sourcePoint" />
          </mxGeometry>
        </mxCell>
        <mxCell id="Q4PtB8VEEmsm6MJClJGm-346" value="&lt;font style=&quot;font-size: 8px;&quot;&gt;fecha_venc&lt;/font&gt;" style="text;html=1;align=center;verticalAlign=middle;resizable=0;points=[];autosize=1;strokeColor=none;fillColor=none;rotation=-60;" parent="1" vertex="1">
          <mxGeometry x="2935" y="411.66152422706625" width="70" height="30" as="geometry" />
        </mxCell>
        <mxCell id="Q4PtB8VEEmsm6MJClJGm-348" value="Entidad" style="rounded=0;whiteSpace=wrap;html=1;" parent="1" vertex="1">
          <mxGeometry x="3242" y="416.8802540378442" width="160" height="60" as="geometry" />
        </mxCell>
        <mxCell id="Q4PtB8VEEmsm6MJClJGm-349" value="" style="group" parent="1" vertex="1" connectable="0">
          <mxGeometry x="3316.5" y="388.9615242270663" width="8" height="28" as="geometry" />
        </mxCell>
        <mxCell id="Q4PtB8VEEmsm6MJClJGm-350" value="" style="ellipse;whiteSpace=wrap;html=1;aspect=fixed;fillColor=light-dark(#FFFFFF,#FFFFFF);" parent="Q4PtB8VEEmsm6MJClJGm-349" vertex="1">
          <mxGeometry width="8" height="8" as="geometry" />
        </mxCell>
        <mxCell id="Q4PtB8VEEmsm6MJClJGm-351" style="edgeStyle=orthogonalEdgeStyle;rounded=0;orthogonalLoop=1;jettySize=auto;html=1;endArrow=none;startFill=0;" parent="Q4PtB8VEEmsm6MJClJGm-349" edge="1">
          <mxGeometry relative="1" as="geometry">
            <mxPoint x="4" y="28" as="targetPoint" />
            <mxPoint x="4" y="8" as="sourcePoint" />
          </mxGeometry>
        </mxCell>
        <mxCell id="Q4PtB8VEEmsm6MJClJGm-352" value="&lt;font style=&quot;font-size: 8px;&quot;&gt;nombre&lt;/font&gt;" style="text;html=1;align=center;verticalAlign=middle;resizable=0;points=[];autosize=1;strokeColor=none;fillColor=none;rotation=-60;" parent="1" vertex="1">
          <mxGeometry x="3299" y="355.66152422706625" width="50" height="30" as="geometry" />
        </mxCell>
        <mxCell id="Q4PtB8VEEmsm6MJClJGm-374" value="Banco" style="rounded=0;whiteSpace=wrap;html=1;" parent="1" vertex="1">
          <mxGeometry x="3242" y="557.9202540378443" width="160" height="60" as="geometry" />
        </mxCell>
        <mxCell id="Q4PtB8VEEmsm6MJClJGm-375" value="" style="group" parent="1" vertex="1" connectable="0">
          <mxGeometry x="3316.5" y="530.0015242270664" width="8" height="28" as="geometry" />
        </mxCell>
        <mxCell id="Q4PtB8VEEmsm6MJClJGm-376" value="" style="ellipse;whiteSpace=wrap;html=1;aspect=fixed;fillColor=light-dark(#FFFFFF,#FFFFFF);" parent="Q4PtB8VEEmsm6MJClJGm-375" vertex="1">
          <mxGeometry width="8" height="8" as="geometry" />
        </mxCell>
        <mxCell id="Q4PtB8VEEmsm6MJClJGm-377" style="edgeStyle=orthogonalEdgeStyle;rounded=0;orthogonalLoop=1;jettySize=auto;html=1;endArrow=none;startFill=0;" parent="Q4PtB8VEEmsm6MJClJGm-375" edge="1">
          <mxGeometry relative="1" as="geometry">
            <mxPoint x="4" y="28" as="targetPoint" />
            <mxPoint x="4" y="8" as="sourcePoint" />
          </mxGeometry>
        </mxCell>
        <mxCell id="Q4PtB8VEEmsm6MJClJGm-378" value="&lt;font style=&quot;font-size: 8px;&quot;&gt;nombre&lt;/font&gt;" style="text;html=1;align=center;verticalAlign=middle;resizable=0;points=[];autosize=1;strokeColor=none;fillColor=none;rotation=-60;" parent="1" vertex="1">
          <mxGeometry x="3299" y="495.54152422706636" width="50" height="30" as="geometry" />
        </mxCell>
        <mxCell id="Q4PtB8VEEmsm6MJClJGm-387" value="emitida_por" style="rhombus;whiteSpace=wrap;html=1;" parent="1" vertex="1">
          <mxGeometry x="3102" y="406.6602540378443" width="80" height="80" as="geometry" />
        </mxCell>
        <mxCell id="Q4PtB8VEEmsm6MJClJGm-388" value="asociada" style="rhombus;whiteSpace=wrap;html=1;" parent="1" vertex="1">
          <mxGeometry x="3102" y="547.9202540378443" width="80" height="80" as="geometry" />
        </mxCell>
        <mxCell id="Q4PtB8VEEmsm6MJClJGm-389" value="" style="endArrow=none;html=1;rounded=0;exitX=1;exitY=0.25;exitDx=0;exitDy=0;entryX=0;entryY=0.5;entryDx=0;entryDy=0;" parent="1" source="Q4PtB8VEEmsm6MJClJGm-330" target="Q4PtB8VEEmsm6MJClJGm-387" edge="1">
          <mxGeometry width="50" height="50" relative="1" as="geometry">
            <mxPoint x="3132" y="529.66" as="sourcePoint" />
            <mxPoint x="3182" y="479.65999999999997" as="targetPoint" />
          </mxGeometry>
        </mxCell>
        <mxCell id="Q4PtB8VEEmsm6MJClJGm-390" value="" style="endArrow=none;html=1;rounded=0;exitX=1;exitY=0.75;exitDx=0;exitDy=0;entryX=0;entryY=0.5;entryDx=0;entryDy=0;" parent="1" source="Q4PtB8VEEmsm6MJClJGm-330" target="Q4PtB8VEEmsm6MJClJGm-388" edge="1">
          <mxGeometry width="50" height="50" relative="1" as="geometry">
            <mxPoint x="3132" y="529.66" as="sourcePoint" />
            <mxPoint x="3182" y="479.65999999999997" as="targetPoint" />
          </mxGeometry>
        </mxCell>
        <mxCell id="Q4PtB8VEEmsm6MJClJGm-391" value="" style="endArrow=none;html=1;rounded=0;exitX=1;exitY=0.5;exitDx=0;exitDy=0;entryX=0;entryY=0.5;entryDx=0;entryDy=0;" parent="1" source="Q4PtB8VEEmsm6MJClJGm-387" target="Q4PtB8VEEmsm6MJClJGm-348" edge="1">
          <mxGeometry width="50" height="50" relative="1" as="geometry">
            <mxPoint x="3132" y="529.66" as="sourcePoint" />
            <mxPoint x="3182" y="479.65999999999997" as="targetPoint" />
          </mxGeometry>
        </mxCell>
        <mxCell id="Q4PtB8VEEmsm6MJClJGm-392" value="" style="endArrow=none;html=1;rounded=0;exitX=1;exitY=0.5;exitDx=0;exitDy=0;entryX=0;entryY=0.5;entryDx=0;entryDy=0;" parent="1" source="Q4PtB8VEEmsm6MJClJGm-388" target="Q4PtB8VEEmsm6MJClJGm-374" edge="1">
          <mxGeometry width="50" height="50" relative="1" as="geometry">
            <mxPoint x="3152" y="589.66" as="sourcePoint" />
            <mxPoint x="3202" y="539.66" as="targetPoint" />
          </mxGeometry>
        </mxCell>
        <mxCell id="Q4PtB8VEEmsm6MJClJGm-393" value="(1,1)" style="text;html=1;align=center;verticalAlign=middle;resizable=0;points=[];autosize=1;strokeColor=none;fillColor=none;" parent="1" vertex="1">
          <mxGeometry x="3027" y="446.65999999999997" width="60" height="30" as="geometry" />
        </mxCell>
        <mxCell id="Q4PtB8VEEmsm6MJClJGm-394" value="(1,1)" style="text;html=1;align=center;verticalAlign=middle;resizable=0;points=[];autosize=1;strokeColor=none;fillColor=none;" parent="1" vertex="1">
          <mxGeometry x="3042" y="517.92" width="60" height="30" as="geometry" />
        </mxCell>
        <mxCell id="Q4PtB8VEEmsm6MJClJGm-395" value="(0,n)" style="text;html=1;align=center;verticalAlign=middle;resizable=0;points=[];autosize=1;strokeColor=none;fillColor=none;" parent="1" vertex="1">
          <mxGeometry x="3182" y="416.9599999999999" width="60" height="30" as="geometry" />
        </mxCell>
        <mxCell id="Q4PtB8VEEmsm6MJClJGm-396" value="(0,n)" style="text;html=1;align=center;verticalAlign=middle;resizable=0;points=[];autosize=1;strokeColor=none;fillColor=none;" parent="1" vertex="1">
          <mxGeometry x="3182" y="556.12" width="60" height="30" as="geometry" />
        </mxCell>
        <mxCell id="Q4PtB8VEEmsm6MJClJGm-398" style="edgeStyle=orthogonalEdgeStyle;rounded=0;orthogonalLoop=1;jettySize=auto;html=1;entryX=0;entryY=0.5;entryDx=0;entryDy=0;endArrow=none;startFill=0;" parent="1" source="Q4PtB8VEEmsm6MJClJGm-397" target="Q4PtB8VEEmsm6MJClJGm-330" edge="1">
          <mxGeometry relative="1" as="geometry" />
        </mxCell>
        <mxCell id="Q4PtB8VEEmsm6MJClJGm-397" value="pol_tarj" style="rhombus;whiteSpace=wrap;html=1;" parent="1" vertex="1">
          <mxGeometry x="2740" y="469.54" width="80" height="80" as="geometry" />
        </mxCell>
        <mxCell id="Q4PtB8VEEmsm6MJClJGm-400" value="(0,1)" style="text;html=1;align=center;verticalAlign=middle;resizable=0;points=[];autosize=1;strokeColor=none;fillColor=none;" parent="1" vertex="1">
          <mxGeometry x="2673" y="476.65999999999997" width="60" height="30" as="geometry" />
        </mxCell>
        <mxCell id="Q4PtB8VEEmsm6MJClJGm-401" value="(0,n)" style="text;html=1;align=center;verticalAlign=middle;resizable=0;points=[];autosize=1;strokeColor=none;fillColor=none;" parent="1" vertex="1">
          <mxGeometry x="2820" y="479.12" width="60" height="30" as="geometry" />
        </mxCell>
        <mxCell id="Q4PtB8VEEmsm6MJClJGm-405" style="edgeStyle=orthogonalEdgeStyle;rounded=0;orthogonalLoop=1;jettySize=auto;html=1;endArrow=none;startFill=0;" parent="1" source="Q4PtB8VEEmsm6MJClJGm-402" edge="1">
          <mxGeometry relative="1" as="geometry">
            <mxPoint x="2540" y="540" as="targetPoint" />
          </mxGeometry>
        </mxCell>
        <mxCell id="Q4PtB8VEEmsm6MJClJGm-402" value="renovacion" style="rhombus;whiteSpace=wrap;html=1;" parent="1" vertex="1">
          <mxGeometry x="2559" y="559.8000000000001" width="80" height="80" as="geometry" />
        </mxCell>
        <mxCell id="Q4PtB8VEEmsm6MJClJGm-403" value="(0,1)" style="text;html=1;align=center;verticalAlign=middle;resizable=0;points=[];autosize=1;strokeColor=none;fillColor=none;" parent="1" vertex="1">
          <mxGeometry x="2610" y="537.9999999999999" width="60" height="30" as="geometry" />
        </mxCell>
        <mxCell id="Q4PtB8VEEmsm6MJClJGm-408" value="" style="endArrow=none;html=1;rounded=0;exitX=1;exitY=0.5;exitDx=0;exitDy=0;" parent="1" source="Q4PtB8VEEmsm6MJClJGm-402" edge="1">
          <mxGeometry width="50" height="50" relative="1" as="geometry">
            <mxPoint x="2639" y="601" as="sourcePoint" />
            <mxPoint x="2660" y="540" as="targetPoint" />
            <Array as="points">
              <mxPoint x="2660" y="600" />
            </Array>
          </mxGeometry>
        </mxCell>
        <mxCell id="Q4PtB8VEEmsm6MJClJGm-409" value="(0,1)" style="text;html=1;align=center;verticalAlign=middle;resizable=0;points=[];autosize=1;strokeColor=none;fillColor=none;" parent="1" vertex="1">
          <mxGeometry x="2530" y="537.9999999999999" width="60" height="30" as="geometry" />
        </mxCell>
        <mxCell id="Q4PtB8VEEmsm6MJClJGm-412" value="asociada" style="rhombus;whiteSpace=wrap;html=1;" parent="1" vertex="1">
          <mxGeometry x="2344" y="366.96" width="80" height="80" as="geometry" />
        </mxCell>
        <mxCell id="Q4PtB8VEEmsm6MJClJGm-414" value="(0,n)" style="text;html=1;align=center;verticalAlign=middle;resizable=0;points=[];autosize=1;strokeColor=none;fillColor=none;" parent="1" vertex="1">
          <mxGeometry x="2380" y="320" width="60" height="30" as="geometry" />
        </mxCell>
        <mxCell id="Q4PtB8VEEmsm6MJClJGm-415" value="(1,1)" style="text;html=1;align=center;verticalAlign=middle;resizable=0;points=[];autosize=1;strokeColor=none;fillColor=none;" parent="1" vertex="1">
          <mxGeometry x="2440" y="465" width="60" height="30" as="geometry" />
        </mxCell>
        <mxCell id="Q4PtB8VEEmsm6MJClJGm-417" value="" style="curved=1;endArrow=none;html=1;rounded=0;startFill=0;" parent="1" edge="1">
          <mxGeometry width="50" height="50" relative="1" as="geometry">
            <mxPoint x="2384" y="350" as="sourcePoint" />
            <mxPoint x="2540" y="470" as="targetPoint" />
            <Array as="points">
              <mxPoint x="2420" y="370" />
              <mxPoint x="2440" y="390" />
              <mxPoint x="2460" y="450" />
              <mxPoint x="2500" y="470" />
            </Array>
          </mxGeometry>
        </mxCell>
        <mxCell id="Q4PtB8VEEmsm6MJClJGm-418" value="" style="group" parent="1" vertex="1" connectable="0">
          <mxGeometry x="2535" y="466.0015242270663" width="8" height="28" as="geometry" />
        </mxCell>
        <mxCell id="Q4PtB8VEEmsm6MJClJGm-419" value="" style="ellipse;whiteSpace=wrap;html=1;aspect=fixed;fillColor=light-dark(#FFFFFF,#FFFFFF);" parent="Q4PtB8VEEmsm6MJClJGm-418" vertex="1">
          <mxGeometry width="8" height="8" as="geometry" />
        </mxCell>
        <mxCell id="Q4PtB8VEEmsm6MJClJGm-421" value="" style="endArrow=none;html=1;rounded=0;entryX=0;entryY=0.5;entryDx=0;entryDy=0;" parent="1" target="Q4PtB8VEEmsm6MJClJGm-422" edge="1">
          <mxGeometry width="50" height="50" relative="1" as="geometry">
            <mxPoint x="2610" y="479.5" as="sourcePoint" />
            <mxPoint x="2640" y="380" as="targetPoint" />
          </mxGeometry>
        </mxCell>
        <mxCell id="Q4PtB8VEEmsm6MJClJGm-438" style="edgeStyle=orthogonalEdgeStyle;rounded=0;orthogonalLoop=1;jettySize=auto;html=1;entryX=0;entryY=0.5;entryDx=0;entryDy=0;endArrow=none;startFill=0;" parent="1" source="Q4PtB8VEEmsm6MJClJGm-422" target="Q4PtB8VEEmsm6MJClJGm-423" edge="1">
          <mxGeometry relative="1" as="geometry" />
        </mxCell>
        <mxCell id="Q4PtB8VEEmsm6MJClJGm-422" value="tiene" style="rhombus;whiteSpace=wrap;html=1;" parent="1" vertex="1">
          <mxGeometry x="2681" y="296" width="80" height="80" as="geometry" />
        </mxCell>
        <mxCell id="Q4PtB8VEEmsm6MJClJGm-423" value="Cobertura" style="rounded=0;whiteSpace=wrap;html=1;" parent="1" vertex="1">
          <mxGeometry x="2830" y="305.9602540378443" width="160" height="60" as="geometry" />
        </mxCell>
        <mxCell id="Q4PtB8VEEmsm6MJClJGm-425" value="" style="group" parent="1" vertex="1" connectable="0">
          <mxGeometry x="2887.5" y="277.9215242270663" width="8" height="28" as="geometry" />
        </mxCell>
        <mxCell id="Q4PtB8VEEmsm6MJClJGm-426" value="" style="ellipse;whiteSpace=wrap;html=1;aspect=fixed;fillColor=light-dark(#FFFFFF,#FFFFFF);" parent="Q4PtB8VEEmsm6MJClJGm-425" vertex="1">
          <mxGeometry width="8" height="8" as="geometry" />
        </mxCell>
        <mxCell id="Q4PtB8VEEmsm6MJClJGm-427" style="edgeStyle=orthogonalEdgeStyle;rounded=0;orthogonalLoop=1;jettySize=auto;html=1;endArrow=none;startFill=0;" parent="Q4PtB8VEEmsm6MJClJGm-425" edge="1">
          <mxGeometry relative="1" as="geometry">
            <mxPoint x="4" y="28" as="targetPoint" />
            <mxPoint x="4" y="8" as="sourcePoint" />
          </mxGeometry>
        </mxCell>
        <mxCell id="Q4PtB8VEEmsm6MJClJGm-428" value="&lt;font style=&quot;font-size: 8px;&quot;&gt;nombre&lt;/font&gt;" style="text;html=1;align=center;verticalAlign=middle;resizable=0;points=[];autosize=1;strokeColor=none;fillColor=none;rotation=-60;" parent="1" vertex="1">
          <mxGeometry x="2871" y="243.00152422706623" width="50" height="30" as="geometry" />
        </mxCell>
        <mxCell id="Q4PtB8VEEmsm6MJClJGm-429" value="" style="group" parent="1" vertex="1" connectable="0">
          <mxGeometry x="2906.5" y="277.9215242270663" width="8" height="28" as="geometry" />
        </mxCell>
        <mxCell id="Q4PtB8VEEmsm6MJClJGm-430" value="" style="ellipse;whiteSpace=wrap;html=1;aspect=fixed;" parent="Q4PtB8VEEmsm6MJClJGm-429" vertex="1">
          <mxGeometry width="8" height="8" as="geometry" />
        </mxCell>
        <mxCell id="Q4PtB8VEEmsm6MJClJGm-431" style="edgeStyle=orthogonalEdgeStyle;rounded=0;orthogonalLoop=1;jettySize=auto;html=1;endArrow=none;startFill=0;" parent="Q4PtB8VEEmsm6MJClJGm-429" edge="1">
          <mxGeometry relative="1" as="geometry">
            <mxPoint x="4" y="28" as="targetPoint" />
            <mxPoint x="4" y="8" as="sourcePoint" />
          </mxGeometry>
        </mxCell>
        <mxCell id="Q4PtB8VEEmsm6MJClJGm-432" value="&lt;font style=&quot;font-size: 8px;&quot;&gt;descrip_cobertura&lt;/font&gt;" style="text;html=1;align=center;verticalAlign=middle;resizable=0;points=[];autosize=1;strokeColor=none;fillColor=none;rotation=-60;" parent="1" vertex="1">
          <mxGeometry x="2872" y="221.00152422706623" width="110" height="30" as="geometry" />
        </mxCell>
        <mxCell id="Q4PtB8VEEmsm6MJClJGm-433" value="" style="group" parent="1" vertex="1" connectable="0">
          <mxGeometry x="2926.5" y="277.9215242270663" width="8" height="28" as="geometry" />
        </mxCell>
        <mxCell id="Q4PtB8VEEmsm6MJClJGm-434" value="" style="ellipse;whiteSpace=wrap;html=1;aspect=fixed;" parent="Q4PtB8VEEmsm6MJClJGm-433" vertex="1">
          <mxGeometry width="8" height="8" as="geometry" />
        </mxCell>
        <mxCell id="Q4PtB8VEEmsm6MJClJGm-435" style="edgeStyle=orthogonalEdgeStyle;rounded=0;orthogonalLoop=1;jettySize=auto;html=1;endArrow=none;startFill=0;" parent="Q4PtB8VEEmsm6MJClJGm-433" edge="1">
          <mxGeometry relative="1" as="geometry">
            <mxPoint x="4" y="28" as="targetPoint" />
            <mxPoint x="4" y="8" as="sourcePoint" />
          </mxGeometry>
        </mxCell>
        <mxCell id="Q4PtB8VEEmsm6MJClJGm-437" value="&lt;font style=&quot;font-size: 8px;&quot;&gt;descrip_clausulas&lt;/font&gt;" style="text;html=1;align=center;verticalAlign=middle;resizable=0;points=[];autosize=1;strokeColor=none;fillColor=none;rotation=-60;" parent="1" vertex="1">
          <mxGeometry x="2893" y="221.00152422706623" width="110" height="30" as="geometry" />
        </mxCell>
        <mxCell id="Q4PtB8VEEmsm6MJClJGm-439" value="(1,1)" style="text;html=1;align=center;verticalAlign=middle;resizable=0;points=[];autosize=1;strokeColor=none;fillColor=none;" parent="1" vertex="1">
          <mxGeometry x="2621" y="335.96" width="60" height="30" as="geometry" />
        </mxCell>
        <mxCell id="Q4PtB8VEEmsm6MJClJGm-440" value="(0,n)" style="text;html=1;align=center;verticalAlign=middle;resizable=0;points=[];autosize=1;strokeColor=none;fillColor=none;" parent="1" vertex="1">
          <mxGeometry x="2770" y="305.96" width="60" height="30" as="geometry" />
        </mxCell>
        <mxCell id="Q4PtB8VEEmsm6MJClJGm-442" value="renovacion" style="rhombus;whiteSpace=wrap;html=1;" parent="1" vertex="1">
          <mxGeometry x="2440" y="602.8000000000001" width="80" height="80" as="geometry" />
        </mxCell>
        <mxCell id="Q4PtB8VEEmsm6MJClJGm-444" value="Cupon_de_pago" style="rounded=0;whiteSpace=wrap;html=1;" parent="1" vertex="1">
          <mxGeometry x="2457" y="770.0002540378443" width="160" height="60" as="geometry" />
        </mxCell>
        <mxCell id="Q4PtB8VEEmsm6MJClJGm-445" value="" style="group" parent="1" vertex="1" connectable="0">
          <mxGeometry x="2512" y="742.1815242270663" width="8" height="28" as="geometry" />
        </mxCell>
        <mxCell id="Q4PtB8VEEmsm6MJClJGm-446" value="" style="ellipse;whiteSpace=wrap;html=1;aspect=fixed;fillColor=light-dark(#FFFFFF,transparent);" parent="Q4PtB8VEEmsm6MJClJGm-445" vertex="1">
          <mxGeometry width="8" height="8" as="geometry" />
        </mxCell>
        <mxCell id="Q4PtB8VEEmsm6MJClJGm-447" style="edgeStyle=orthogonalEdgeStyle;rounded=0;orthogonalLoop=1;jettySize=auto;html=1;endArrow=none;startFill=0;" parent="Q4PtB8VEEmsm6MJClJGm-445" edge="1">
          <mxGeometry relative="1" as="geometry">
            <mxPoint x="4" y="28" as="targetPoint" />
            <mxPoint x="4" y="8" as="sourcePoint" />
          </mxGeometry>
        </mxCell>
        <mxCell id="Q4PtB8VEEmsm6MJClJGm-448" value="&lt;font style=&quot;font-size: 8px;&quot;&gt;monto&lt;/font&gt;" style="text;html=1;align=center;verticalAlign=middle;resizable=0;points=[];autosize=1;strokeColor=none;fillColor=none;rotation=-60;" parent="1" vertex="1">
          <mxGeometry x="2496.5" y="710.2615242270663" width="50" height="30" as="geometry" />
        </mxCell>
        <mxCell id="Q4PtB8VEEmsm6MJClJGm-449" value="" style="group" parent="1" vertex="1" connectable="0">
          <mxGeometry x="2531" y="742.1815242270663" width="8" height="28" as="geometry" />
        </mxCell>
        <mxCell id="Q4PtB8VEEmsm6MJClJGm-450" value="" style="ellipse;whiteSpace=wrap;html=1;aspect=fixed;" parent="Q4PtB8VEEmsm6MJClJGm-449" vertex="1">
          <mxGeometry width="8" height="8" as="geometry" />
        </mxCell>
        <mxCell id="Q4PtB8VEEmsm6MJClJGm-451" style="edgeStyle=orthogonalEdgeStyle;rounded=0;orthogonalLoop=1;jettySize=auto;html=1;endArrow=none;startFill=0;" parent="Q4PtB8VEEmsm6MJClJGm-449" edge="1">
          <mxGeometry relative="1" as="geometry">
            <mxPoint x="4" y="28" as="targetPoint" />
            <mxPoint x="4" y="8" as="sourcePoint" />
          </mxGeometry>
        </mxCell>
        <mxCell id="Q4PtB8VEEmsm6MJClJGm-452" value="&lt;font style=&quot;font-size: 8px;&quot;&gt;fecha_venc&lt;/font&gt;" style="text;html=1;align=center;verticalAlign=middle;resizable=0;points=[];autosize=1;strokeColor=none;fillColor=none;rotation=-60;" parent="1" vertex="1">
          <mxGeometry x="2510" y="699.0015242270663" width="70" height="30" as="geometry" />
        </mxCell>
        <mxCell id="Q4PtB8VEEmsm6MJClJGm-453" value="" style="group" parent="1" vertex="1" connectable="0">
          <mxGeometry x="2551" y="742.1815242270663" width="8" height="28" as="geometry" />
        </mxCell>
        <mxCell id="Q4PtB8VEEmsm6MJClJGm-454" value="" style="ellipse;whiteSpace=wrap;html=1;aspect=fixed;" parent="Q4PtB8VEEmsm6MJClJGm-453" vertex="1">
          <mxGeometry width="8" height="8" as="geometry" />
        </mxCell>
        <mxCell id="Q4PtB8VEEmsm6MJClJGm-455" style="edgeStyle=orthogonalEdgeStyle;rounded=0;orthogonalLoop=1;jettySize=auto;html=1;endArrow=none;startFill=0;" parent="Q4PtB8VEEmsm6MJClJGm-453" edge="1">
          <mxGeometry relative="1" as="geometry">
            <mxPoint x="4" y="28" as="targetPoint" />
            <mxPoint x="4" y="8" as="sourcePoint" />
          </mxGeometry>
        </mxCell>
        <mxCell id="Q4PtB8VEEmsm6MJClJGm-456" value="&lt;font style=&quot;font-size: 8px;&quot;&gt;fecha_pago(0,1)&lt;/font&gt;" style="text;html=1;align=center;verticalAlign=middle;resizable=0;points=[];autosize=1;strokeColor=none;fillColor=none;rotation=-60;" parent="1" vertex="1">
          <mxGeometry x="2521" y="688.0015242270663" width="100" height="30" as="geometry" />
        </mxCell>
        <mxCell id="Q4PtB8VEEmsm6MJClJGm-457" value="(1,n)" style="text;html=1;align=center;verticalAlign=middle;resizable=0;points=[];autosize=1;strokeColor=none;fillColor=none;" parent="1" vertex="1">
          <mxGeometry x="2424" y="572.9199999999998" width="60" height="30" as="geometry" />
        </mxCell>
        <mxCell id="Q4PtB8VEEmsm6MJClJGm-458" value="(1,1)" style="text;html=1;align=center;verticalAlign=middle;resizable=0;points=[];autosize=1;strokeColor=none;fillColor=none;" parent="1" vertex="1">
          <mxGeometry x="2424" y="682.7999999999998" width="60" height="30" as="geometry" />
        </mxCell>
        <mxCell id="Q4PtB8VEEmsm6MJClJGm-459" value="&lt;div&gt;Siniestro&lt;/div&gt;" style="rounded=0;whiteSpace=wrap;html=1;" parent="1" vertex="1">
          <mxGeometry x="2856" y="679.8002540378443" width="160" height="60" as="geometry" />
        </mxCell>
        <mxCell id="Q4PtB8VEEmsm6MJClJGm-460" value="" style="group" parent="1" vertex="1" connectable="0">
          <mxGeometry x="2921" y="651.8015242270662" width="8" height="28" as="geometry" />
        </mxCell>
        <mxCell id="Q4PtB8VEEmsm6MJClJGm-461" value="" style="ellipse;whiteSpace=wrap;html=1;aspect=fixed;fillColor=light-dark(#FFFFFF,transparent);" parent="Q4PtB8VEEmsm6MJClJGm-460" vertex="1">
          <mxGeometry width="8" height="8" as="geometry" />
        </mxCell>
        <mxCell id="Q4PtB8VEEmsm6MJClJGm-462" style="edgeStyle=orthogonalEdgeStyle;rounded=0;orthogonalLoop=1;jettySize=auto;html=1;endArrow=none;startFill=0;" parent="Q4PtB8VEEmsm6MJClJGm-460" edge="1">
          <mxGeometry relative="1" as="geometry">
            <mxPoint x="4" y="28" as="targetPoint" />
            <mxPoint x="4" y="8" as="sourcePoint" />
          </mxGeometry>
        </mxCell>
        <mxCell id="Q4PtB8VEEmsm6MJClJGm-463" value="" style="group" parent="1" vertex="1" connectable="0">
          <mxGeometry x="2940" y="651.8015242270662" width="8" height="28" as="geometry" />
        </mxCell>
        <mxCell id="Q4PtB8VEEmsm6MJClJGm-464" value="" style="ellipse;whiteSpace=wrap;html=1;aspect=fixed;" parent="Q4PtB8VEEmsm6MJClJGm-463" vertex="1">
          <mxGeometry width="8" height="8" as="geometry" />
        </mxCell>
        <mxCell id="Q4PtB8VEEmsm6MJClJGm-465" style="edgeStyle=orthogonalEdgeStyle;rounded=0;orthogonalLoop=1;jettySize=auto;html=1;endArrow=none;startFill=0;" parent="Q4PtB8VEEmsm6MJClJGm-463" edge="1">
          <mxGeometry relative="1" as="geometry">
            <mxPoint x="4" y="28" as="targetPoint" />
            <mxPoint x="4" y="8" as="sourcePoint" />
          </mxGeometry>
        </mxCell>
        <mxCell id="Q4PtB8VEEmsm6MJClJGm-466" value="&lt;font style=&quot;font-size: 8px;&quot;&gt;descripcion&lt;/font&gt;" style="text;html=1;align=center;verticalAlign=middle;resizable=0;points=[];autosize=1;strokeColor=none;fillColor=none;rotation=-60;" parent="1" vertex="1">
          <mxGeometry x="2914" y="606.8015242270661" width="80" height="30" as="geometry" />
        </mxCell>
        <mxCell id="Q4PtB8VEEmsm6MJClJGm-467" value="" style="group" parent="1" vertex="1" connectable="0">
          <mxGeometry x="2960" y="651.8015242270662" width="8" height="28" as="geometry" />
        </mxCell>
        <mxCell id="Q4PtB8VEEmsm6MJClJGm-468" value="" style="ellipse;whiteSpace=wrap;html=1;aspect=fixed;" parent="Q4PtB8VEEmsm6MJClJGm-467" vertex="1">
          <mxGeometry width="8" height="8" as="geometry" />
        </mxCell>
        <mxCell id="Q4PtB8VEEmsm6MJClJGm-469" style="edgeStyle=orthogonalEdgeStyle;rounded=0;orthogonalLoop=1;jettySize=auto;html=1;endArrow=none;startFill=0;" parent="Q4PtB8VEEmsm6MJClJGm-467" edge="1">
          <mxGeometry relative="1" as="geometry">
            <mxPoint x="4" y="28" as="targetPoint" />
            <mxPoint x="4" y="8" as="sourcePoint" />
          </mxGeometry>
        </mxCell>
        <mxCell id="Q4PtB8VEEmsm6MJClJGm-470" value="&lt;font style=&quot;font-size: 8px;&quot;&gt;contacto_3eros(0,1)&lt;/font&gt;" style="text;html=1;align=center;verticalAlign=middle;resizable=0;points=[];autosize=1;strokeColor=none;fillColor=none;rotation=-60;" parent="1" vertex="1">
          <mxGeometry x="2930" y="593.8015242270661" width="110" height="30" as="geometry" />
        </mxCell>
        <mxCell id="Q4PtB8VEEmsm6MJClJGm-471" value="&lt;font style=&quot;font-size: 8px;&quot;&gt;fecha&lt;/font&gt;" style="text;html=1;align=center;verticalAlign=middle;resizable=0;points=[];autosize=1;strokeColor=none;fillColor=none;rotation=-60;" parent="1" vertex="1">
          <mxGeometry x="2904" y="619.8015242270661" width="50" height="30" as="geometry" />
        </mxCell>
        <mxCell id="Q4PtB8VEEmsm6MJClJGm-476" style="edgeStyle=orthogonalEdgeStyle;rounded=0;orthogonalLoop=1;jettySize=auto;html=1;entryX=0;entryY=0.5;entryDx=0;entryDy=0;endArrow=none;startFill=0;" parent="1" source="Q4PtB8VEEmsm6MJClJGm-472" target="Q4PtB8VEEmsm6MJClJGm-459" edge="1">
          <mxGeometry relative="1" as="geometry" />
        </mxCell>
        <mxCell id="Q4PtB8VEEmsm6MJClJGm-472" value="pol_tarj" style="rhombus;whiteSpace=wrap;html=1;" parent="1" vertex="1">
          <mxGeometry x="2680" y="670" width="80" height="80" as="geometry" />
        </mxCell>
        <mxCell id="Q4PtB8VEEmsm6MJClJGm-474" style="edgeStyle=orthogonalEdgeStyle;rounded=0;orthogonalLoop=1;jettySize=auto;html=1;entryX=0.146;entryY=0;entryDx=0;entryDy=0;entryPerimeter=0;endArrow=none;startFill=0;" parent="1" source="Q4PtB8VEEmsm6MJClJGm-442" target="Q4PtB8VEEmsm6MJClJGm-444" edge="1">
          <mxGeometry relative="1" as="geometry" />
        </mxCell>
        <mxCell id="Q4PtB8VEEmsm6MJClJGm-477" value="(1,n)" style="text;html=1;align=center;verticalAlign=middle;resizable=0;points=[];autosize=1;strokeColor=none;fillColor=none;" parent="1" vertex="1">
          <mxGeometry x="2710" y="539.58" width="60" height="30" as="geometry" />
        </mxCell>
        <mxCell id="Q4PtB8VEEmsm6MJClJGm-478" value="(1,1)" style="text;html=1;align=center;verticalAlign=middle;resizable=0;points=[];autosize=1;strokeColor=none;fillColor=none;" parent="1" vertex="1">
          <mxGeometry x="2796" y="678.8" width="60" height="30" as="geometry" />
        </mxCell>
        <mxCell id="Q4PtB8VEEmsm6MJClJGm-479" value="genera" style="rhombus;whiteSpace=wrap;html=1;" parent="1" vertex="1">
          <mxGeometry x="2288" y="469.5400000000001" width="80" height="80" as="geometry" />
        </mxCell>
        <mxCell id="Q4PtB8VEEmsm6MJClJGm-482" value="(1,n)" style="text;html=1;align=center;verticalAlign=middle;resizable=0;points=[];autosize=1;strokeColor=none;fillColor=none;" parent="1" vertex="1">
          <mxGeometry x="2210" y="479.7902540378443" width="60" height="30" as="geometry" />
        </mxCell>
        <mxCell id="Q4PtB8VEEmsm6MJClJGm-483" value="(1,1)" style="text;html=1;align=center;verticalAlign=middle;resizable=0;points=[];autosize=1;strokeColor=none;fillColor=none;" parent="1" vertex="1">
          <mxGeometry x="2370" y="506.6602540378443" width="60" height="30" as="geometry" />
        </mxCell>
        <mxCell id="fgcYRdTwhImjbAuJwy6w-1" value="" style="curved=1;endArrow=none;html=1;rounded=0;startFill=0;" parent="1" edge="1">
          <mxGeometry width="50" height="50" relative="1" as="geometry">
            <mxPoint x="2480" y="550" as="sourcePoint" />
            <mxPoint x="2542" y="759" as="targetPoint" />
            <Array as="points">
              <mxPoint x="2400" y="560" />
              <mxPoint x="2430" y="730" />
              <mxPoint x="2470" y="760" />
            </Array>
          </mxGeometry>
        </mxCell>
        <mxCell id="fgcYRdTwhImjbAuJwy6w-3" value="" style="ellipse;whiteSpace=wrap;html=1;aspect=fixed;fillColor=light-dark(#FFFFFF,#FFFFFF);" parent="1" vertex="1">
          <mxGeometry x="2540" y="755.0015242270663" width="8" height="8" as="geometry" />
        </mxCell>
        <mxCell id="fgcYRdTwhImjbAuJwy6w-4" value="" style="curved=1;endArrow=none;html=1;rounded=0;startFill=0;" parent="1" edge="1">
          <mxGeometry width="50" height="50" relative="1" as="geometry">
            <mxPoint x="2720" y="579" as="sourcePoint" />
            <mxPoint x="2950" y="670" as="targetPoint" />
            <Array as="points">
              <mxPoint x="2780" y="630" />
              <mxPoint x="2850" y="660" />
              <mxPoint x="2889" y="670" />
            </Array>
          </mxGeometry>
        </mxCell>
        <mxCell id="fgcYRdTwhImjbAuJwy6w-6" value="" style="ellipse;whiteSpace=wrap;html=1;aspect=fixed;fillColor=light-dark(#FFFFFF,#FFFFFF);" parent="1" vertex="1">
          <mxGeometry x="2949" y="666.0015242270663" width="8" height="8" as="geometry" />
        </mxCell>
        <mxCell id="HRIiSkAlnpVYVjrPhQSs-6" style="edgeStyle=orthogonalEdgeStyle;rounded=0;orthogonalLoop=1;jettySize=auto;html=1;entryX=0.5;entryY=0;entryDx=0;entryDy=0;endArrow=none;startFill=0;" edge="1" parent="1" source="HRIiSkAlnpVYVjrPhQSs-3" target="Q4PtB8VEEmsm6MJClJGm-233">
          <mxGeometry relative="1" as="geometry" />
        </mxCell>
        <mxCell id="HRIiSkAlnpVYVjrPhQSs-3" value="es_un1" style="rhombus;whiteSpace=wrap;html=1;" vertex="1" parent="1">
          <mxGeometry x="1971" y="599.8000000000001" width="80" height="80" as="geometry" />
        </mxCell>
        <mxCell id="HRIiSkAlnpVYVjrPhQSs-4" value="es_un2" style="rhombus;whiteSpace=wrap;html=1;" vertex="1" parent="1">
          <mxGeometry x="2211" y="599.8000000000001" width="80" height="80" as="geometry" />
        </mxCell>
        <mxCell id="HRIiSkAlnpVYVjrPhQSs-5" style="edgeStyle=orthogonalEdgeStyle;rounded=0;orthogonalLoop=1;jettySize=auto;html=1;entryX=0.5;entryY=1;entryDx=0;entryDy=0;endArrow=none;startFill=0;" edge="1" parent="1" source="Q4PtB8VEEmsm6MJClJGm-234" target="HRIiSkAlnpVYVjrPhQSs-4">
          <mxGeometry relative="1" as="geometry" />
        </mxCell>
        <mxCell id="HRIiSkAlnpVYVjrPhQSs-7" value="" style="endArrow=none;html=1;rounded=0;exitX=0.5;exitY=0;exitDx=0;exitDy=0;entryX=0.25;entryY=1;entryDx=0;entryDy=0;" edge="1" parent="1" source="HRIiSkAlnpVYVjrPhQSs-3" target="Q4PtB8VEEmsm6MJClJGm-178">
          <mxGeometry width="50" height="50" relative="1" as="geometry">
            <mxPoint x="2100" y="680" as="sourcePoint" />
            <mxPoint x="2150" y="630" as="targetPoint" />
          </mxGeometry>
        </mxCell>
        <mxCell id="HRIiSkAlnpVYVjrPhQSs-8" value="" style="endArrow=none;html=1;rounded=0;entryX=0.75;entryY=1;entryDx=0;entryDy=0;exitX=0.5;exitY=0;exitDx=0;exitDy=0;" edge="1" parent="1" source="HRIiSkAlnpVYVjrPhQSs-4" target="Q4PtB8VEEmsm6MJClJGm-178">
          <mxGeometry width="50" height="50" relative="1" as="geometry">
            <mxPoint x="2100" y="680" as="sourcePoint" />
            <mxPoint x="2150" y="630" as="targetPoint" />
          </mxGeometry>
        </mxCell>
        <mxCell id="HRIiSkAlnpVYVjrPhQSs-9" value="(0,1)" style="text;html=1;align=center;verticalAlign=middle;resizable=0;points=[];autosize=1;strokeColor=none;fillColor=none;" vertex="1" parent="1">
          <mxGeometry x="2200" y="539.5802540378443" width="60" height="30" as="geometry" />
        </mxCell>
        <mxCell id="HRIiSkAlnpVYVjrPhQSs-11" value="(0,1)" style="text;html=1;align=center;verticalAlign=middle;resizable=0;points=[];autosize=1;strokeColor=none;fillColor=none;" vertex="1" parent="1">
          <mxGeometry x="1994.5" y="535.0002540378443" width="60" height="30" as="geometry" />
        </mxCell>
        <mxCell id="HRIiSkAlnpVYVjrPhQSs-12" value="(1,1)" style="text;html=1;align=center;verticalAlign=middle;resizable=0;points=[];autosize=1;strokeColor=none;fillColor=none;" vertex="1" parent="1">
          <mxGeometry x="2010" y="738.0002540378443" width="60" height="30" as="geometry" />
        </mxCell>
        <mxCell id="HRIiSkAlnpVYVjrPhQSs-13" value="(1,1)" style="text;html=1;align=center;verticalAlign=middle;resizable=0;points=[];autosize=1;strokeColor=none;fillColor=none;" vertex="1" parent="1">
          <mxGeometry x="2190" y="738.0002540378443" width="60" height="30" as="geometry" />
        </mxCell>
        <mxCell id="HRIiSkAlnpVYVjrPhQSs-14" value="" style="curved=1;endArrow=none;html=1;rounded=0;startFill=0;" edge="1" parent="1">
          <mxGeometry width="50" height="50" relative="1" as="geometry">
            <mxPoint x="2037" y="580" as="sourcePoint" />
            <mxPoint x="2000" y="690" as="targetPoint" />
            <Array as="points">
              <mxPoint x="2090" y="600" />
              <mxPoint x="2110" y="640" />
              <mxPoint x="2070" y="700" />
            </Array>
          </mxGeometry>
        </mxCell>
        <mxCell id="HRIiSkAlnpVYVjrPhQSs-19" value="" style="ellipse;whiteSpace=wrap;html=1;aspect=fixed;fillColor=light-dark(#FFFFFF,#FFFFFF);" vertex="1" parent="1">
          <mxGeometry x="2258" y="736.0015242270664" width="8" height="8" as="geometry" />
        </mxCell>
        <mxCell id="HRIiSkAlnpVYVjrPhQSs-20" value="" style="curved=1;endArrow=none;html=1;rounded=0;startFill=0;" edge="1" parent="1">
          <mxGeometry width="50" height="50" relative="1" as="geometry">
            <mxPoint x="2226" y="581" as="sourcePoint" />
            <mxPoint x="2260" y="740" as="targetPoint" />
            <Array as="points">
              <mxPoint x="2140" y="620" />
              <mxPoint x="2190" y="740" />
            </Array>
          </mxGeometry>
        </mxCell>
        <mxCell id="HRIiSkAlnpVYVjrPhQSs-16" value="" style="ellipse;whiteSpace=wrap;html=1;aspect=fixed;fillColor=light-dark(#FFFFFF,#FFFFFF);" vertex="1" parent="1">
          <mxGeometry x="1997" y="686.0015242270664" width="8" height="8" as="geometry" />
        </mxCell>
        <mxCell id="HRIiSkAlnpVYVjrPhQSs-22" value="" style="group" vertex="1" connectable="0" parent="1">
          <mxGeometry x="2416" y="225.00152422706628" width="8" height="28" as="geometry" />
        </mxCell>
        <mxCell id="HRIiSkAlnpVYVjrPhQSs-23" value="" style="ellipse;whiteSpace=wrap;html=1;aspect=fixed;" vertex="1" parent="HRIiSkAlnpVYVjrPhQSs-22">
          <mxGeometry width="8" height="8" as="geometry" />
        </mxCell>
        <mxCell id="HRIiSkAlnpVYVjrPhQSs-24" style="edgeStyle=orthogonalEdgeStyle;rounded=0;orthogonalLoop=1;jettySize=auto;html=1;endArrow=none;startFill=0;" edge="1" parent="HRIiSkAlnpVYVjrPhQSs-22">
          <mxGeometry relative="1" as="geometry">
            <mxPoint x="4" y="28" as="targetPoint" />
            <mxPoint x="4" y="8" as="sourcePoint" />
          </mxGeometry>
        </mxCell>
        <mxCell id="HRIiSkAlnpVYVjrPhQSs-25" value="&lt;font style=&quot;font-size: 8px;&quot;&gt;dir_completa&lt;/font&gt;" style="text;html=1;align=center;verticalAlign=middle;resizable=0;points=[];autosize=1;strokeColor=none;fillColor=none;rotation=-60;" vertex="1" parent="1">
          <mxGeometry x="2392" y="179.00152422706637" width="80" height="30" as="geometry" />
        </mxCell>
        <mxCell id="HRIiSkAlnpVYVjrPhQSs-30" style="edgeStyle=orthogonalEdgeStyle;rounded=0;orthogonalLoop=1;jettySize=auto;html=1;entryX=0;entryY=0.5;entryDx=0;entryDy=0;endArrow=none;startFill=0;" edge="1" parent="1" source="HRIiSkAlnpVYVjrPhQSs-26" target="HRIiSkAlnpVYVjrPhQSs-28">
          <mxGeometry relative="1" as="geometry" />
        </mxCell>
        <mxCell id="HRIiSkAlnpVYVjrPhQSs-26" value="Email" style="rounded=0;whiteSpace=wrap;html=1;" vertex="1" parent="1">
          <mxGeometry x="1942" y="170.00025403784434" width="160" height="60" as="geometry" />
        </mxCell>
        <mxCell id="HRIiSkAlnpVYVjrPhQSs-31" style="edgeStyle=orthogonalEdgeStyle;rounded=0;orthogonalLoop=1;jettySize=auto;html=1;entryX=0;entryY=0.5;entryDx=0;entryDy=0;endArrow=none;startFill=0;" edge="1" parent="1" source="HRIiSkAlnpVYVjrPhQSs-27" target="HRIiSkAlnpVYVjrPhQSs-29">
          <mxGeometry relative="1" as="geometry" />
        </mxCell>
        <mxCell id="HRIiSkAlnpVYVjrPhQSs-27" value="Telefono" style="rounded=0;whiteSpace=wrap;html=1;" vertex="1" parent="1">
          <mxGeometry x="1942" y="315.70025403784433" width="160" height="60" as="geometry" />
        </mxCell>
        <mxCell id="HRIiSkAlnpVYVjrPhQSs-28" value="tiene1" style="rhombus;whiteSpace=wrap;html=1;" vertex="1" parent="1">
          <mxGeometry x="2148" y="160" width="80" height="80" as="geometry" />
        </mxCell>
        <mxCell id="HRIiSkAlnpVYVjrPhQSs-29" value="tiene2" style="rhombus;whiteSpace=wrap;html=1;" vertex="1" parent="1">
          <mxGeometry x="2148" y="305.65999999999997" width="80" height="80" as="geometry" />
        </mxCell>
        <mxCell id="HRIiSkAlnpVYVjrPhQSs-32" value="" style="endArrow=none;html=1;rounded=0;entryX=0.983;entryY=0.482;entryDx=0;entryDy=0;entryPerimeter=0;exitX=0;exitY=0.25;exitDx=0;exitDy=0;" edge="1" parent="1" source="Q4PtB8VEEmsm6MJClJGm-177" target="HRIiSkAlnpVYVjrPhQSs-28">
          <mxGeometry width="50" height="50" relative="1" as="geometry">
            <mxPoint x="2190" y="290" as="sourcePoint" />
            <mxPoint x="2240" y="240" as="targetPoint" />
          </mxGeometry>
        </mxCell>
        <mxCell id="HRIiSkAlnpVYVjrPhQSs-33" value="" style="endArrow=none;html=1;rounded=0;exitX=1;exitY=0.5;exitDx=0;exitDy=0;entryX=0;entryY=0.75;entryDx=0;entryDy=0;" edge="1" parent="1" source="HRIiSkAlnpVYVjrPhQSs-29" target="Q4PtB8VEEmsm6MJClJGm-177">
          <mxGeometry width="50" height="50" relative="1" as="geometry">
            <mxPoint x="2190" y="290" as="sourcePoint" />
            <mxPoint x="2240" y="240" as="targetPoint" />
          </mxGeometry>
        </mxCell>
        <mxCell id="HRIiSkAlnpVYVjrPhQSs-39" value="" style="group" vertex="1" connectable="0" parent="1">
          <mxGeometry x="2016" y="287.7015242270663" width="8" height="28" as="geometry" />
        </mxCell>
        <mxCell id="HRIiSkAlnpVYVjrPhQSs-40" value="" style="ellipse;whiteSpace=wrap;html=1;aspect=fixed;fillColor=light-dark(#FFFFFF,#FFFFFF);" vertex="1" parent="HRIiSkAlnpVYVjrPhQSs-39">
          <mxGeometry width="8" height="8" as="geometry" />
        </mxCell>
        <mxCell id="HRIiSkAlnpVYVjrPhQSs-41" style="edgeStyle=orthogonalEdgeStyle;rounded=0;orthogonalLoop=1;jettySize=auto;html=1;endArrow=none;startFill=0;" edge="1" parent="HRIiSkAlnpVYVjrPhQSs-39">
          <mxGeometry relative="1" as="geometry">
            <mxPoint x="4" y="28" as="targetPoint" />
            <mxPoint x="4" y="8" as="sourcePoint" />
          </mxGeometry>
        </mxCell>
        <mxCell id="HRIiSkAlnpVYVjrPhQSs-42" value="&lt;font style=&quot;font-size: 8px;&quot;&gt;numero&lt;/font&gt;" style="text;html=1;align=center;verticalAlign=middle;resizable=0;points=[];autosize=1;strokeColor=none;fillColor=none;rotation=-60;" vertex="1" parent="1">
          <mxGeometry x="1998" y="254.7015242270664" width="50" height="30" as="geometry" />
        </mxCell>
        <mxCell id="HRIiSkAlnpVYVjrPhQSs-43" value="" style="group" vertex="1" connectable="0" parent="1">
          <mxGeometry x="2016.5" y="142.00152422706628" width="8" height="28" as="geometry" />
        </mxCell>
        <mxCell id="HRIiSkAlnpVYVjrPhQSs-44" value="" style="ellipse;whiteSpace=wrap;html=1;aspect=fixed;fillColor=light-dark(#FFFFFF,#FFFFFF);" vertex="1" parent="HRIiSkAlnpVYVjrPhQSs-43">
          <mxGeometry width="8" height="8" as="geometry" />
        </mxCell>
        <mxCell id="HRIiSkAlnpVYVjrPhQSs-45" style="edgeStyle=orthogonalEdgeStyle;rounded=0;orthogonalLoop=1;jettySize=auto;html=1;endArrow=none;startFill=0;" edge="1" parent="HRIiSkAlnpVYVjrPhQSs-43">
          <mxGeometry relative="1" as="geometry">
            <mxPoint x="4" y="28" as="targetPoint" />
            <mxPoint x="4" y="8" as="sourcePoint" />
          </mxGeometry>
        </mxCell>
        <mxCell id="HRIiSkAlnpVYVjrPhQSs-46" value="&lt;font style=&quot;font-size: 8px;&quot;&gt;email&lt;/font&gt;" style="text;html=1;align=center;verticalAlign=middle;resizable=0;points=[];autosize=1;strokeColor=none;fillColor=none;rotation=-60;" vertex="1" parent="1">
          <mxGeometry x="1998.5" y="109.0015242270664" width="50" height="30" as="geometry" />
        </mxCell>
        <mxCell id="HRIiSkAlnpVYVjrPhQSs-47" value="(1,n)" style="text;html=1;align=center;verticalAlign=middle;resizable=0;points=[];autosize=1;strokeColor=none;fillColor=none;" vertex="1" parent="1">
          <mxGeometry x="2237" y="277.92025403784436" width="60" height="30" as="geometry" />
        </mxCell>
        <mxCell id="HRIiSkAlnpVYVjrPhQSs-48" value="(1,n)" style="text;html=1;align=center;verticalAlign=middle;resizable=0;points=[];autosize=1;strokeColor=none;fillColor=none;" vertex="1" parent="1">
          <mxGeometry x="2252" y="205.54025403784433" width="60" height="30" as="geometry" />
        </mxCell>
        <mxCell id="HRIiSkAlnpVYVjrPhQSs-49" value="(1,1)" style="text;html=1;align=center;verticalAlign=middle;resizable=0;points=[];autosize=1;strokeColor=none;fillColor=none;" vertex="1" parent="1">
          <mxGeometry x="2099.5" y="170.00025403784434" width="60" height="30" as="geometry" />
        </mxCell>
        <mxCell id="HRIiSkAlnpVYVjrPhQSs-50" value="(1,1)" style="text;html=1;align=center;verticalAlign=middle;resizable=0;points=[];autosize=1;strokeColor=none;fillColor=none;" vertex="1" parent="1">
          <mxGeometry x="2095" y="313.00025403784434" width="60" height="30" as="geometry" />
        </mxCell>
        <mxCell id="HRIiSkAlnpVYVjrPhQSs-51" value="" style="curved=1;endArrow=none;html=1;rounded=0;startFill=0;" edge="1" parent="1">
          <mxGeometry width="50" height="50" relative="1" as="geometry">
            <mxPoint x="2255" y="224" as="sourcePoint" />
            <mxPoint x="2010" y="160" as="targetPoint" />
            <Array as="points">
              <mxPoint x="2235" y="154" />
              <mxPoint x="2160" y="160" />
            </Array>
          </mxGeometry>
        </mxCell>
        <mxCell id="HRIiSkAlnpVYVjrPhQSs-52" value="" style="group" vertex="1" connectable="0" parent="1">
          <mxGeometry x="2004" y="156.00152422706628" width="8" height="28" as="geometry" />
        </mxCell>
        <mxCell id="HRIiSkAlnpVYVjrPhQSs-53" value="" style="ellipse;whiteSpace=wrap;html=1;aspect=fixed;fillColor=light-dark(#FFFFFF,#FFFFFF);" vertex="1" parent="HRIiSkAlnpVYVjrPhQSs-52">
          <mxGeometry width="8" height="8" as="geometry" />
        </mxCell>
        <mxCell id="HRIiSkAlnpVYVjrPhQSs-56" value="" style="curved=1;endArrow=none;html=1;rounded=0;startFill=0;" edge="1" parent="1">
          <mxGeometry width="50" height="50" relative="1" as="geometry">
            <mxPoint x="2256" y="327.92" as="sourcePoint" />
            <mxPoint x="2007" y="306" as="targetPoint" />
            <Array as="points">
              <mxPoint x="2231" y="300" />
              <mxPoint x="2168" y="298" />
            </Array>
          </mxGeometry>
        </mxCell>
        <mxCell id="HRIiSkAlnpVYVjrPhQSs-58" value="" style="group" vertex="1" connectable="0" parent="1">
          <mxGeometry x="2001" y="302.0015242270663" width="8" height="28" as="geometry" />
        </mxCell>
        <mxCell id="HRIiSkAlnpVYVjrPhQSs-59" value="" style="ellipse;whiteSpace=wrap;html=1;aspect=fixed;fillColor=light-dark(#FFFFFF,#FFFFFF);" vertex="1" parent="HRIiSkAlnpVYVjrPhQSs-58">
          <mxGeometry width="8" height="8" as="geometry" />
        </mxCell>
        <mxCell id="HRIiSkAlnpVYVjrPhQSs-64" value="" style="group" vertex="1" connectable="0" parent="1">
          <mxGeometry x="2645.5" y="451.79152422706636" width="8" height="28" as="geometry" />
        </mxCell>
        <mxCell id="HRIiSkAlnpVYVjrPhQSs-65" value="" style="ellipse;whiteSpace=wrap;html=1;aspect=fixed;" vertex="1" parent="HRIiSkAlnpVYVjrPhQSs-64">
          <mxGeometry width="8" height="8" as="geometry" />
        </mxCell>
        <mxCell id="HRIiSkAlnpVYVjrPhQSs-66" style="edgeStyle=orthogonalEdgeStyle;rounded=0;orthogonalLoop=1;jettySize=auto;html=1;endArrow=none;startFill=0;" edge="1" parent="HRIiSkAlnpVYVjrPhQSs-64">
          <mxGeometry relative="1" as="geometry">
            <mxPoint x="4" y="28" as="targetPoint" />
            <mxPoint x="4" y="8" as="sourcePoint" />
          </mxGeometry>
        </mxCell>
        <mxCell id="HRIiSkAlnpVYVjrPhQSs-67" value="" style="group" vertex="1" connectable="0" parent="1">
          <mxGeometry x="2665.5" y="451.79152422706636" width="8" height="28" as="geometry" />
        </mxCell>
        <mxCell id="HRIiSkAlnpVYVjrPhQSs-68" value="" style="ellipse;whiteSpace=wrap;html=1;aspect=fixed;" vertex="1" parent="HRIiSkAlnpVYVjrPhQSs-67">
          <mxGeometry width="8" height="8" as="geometry" />
        </mxCell>
        <mxCell id="HRIiSkAlnpVYVjrPhQSs-69" style="edgeStyle=orthogonalEdgeStyle;rounded=0;orthogonalLoop=1;jettySize=auto;html=1;endArrow=none;startFill=0;" edge="1" parent="HRIiSkAlnpVYVjrPhQSs-67">
          <mxGeometry relative="1" as="geometry">
            <mxPoint x="4" y="28" as="targetPoint" />
            <mxPoint x="4" y="8" as="sourcePoint" />
          </mxGeometry>
        </mxCell>
        <mxCell id="HRIiSkAlnpVYVjrPhQSs-70" value="&lt;font style=&quot;font-size: 8px;&quot;&gt;fecha_desde&lt;/font&gt;" style="text;html=1;align=center;verticalAlign=middle;resizable=0;points=[];autosize=1;strokeColor=none;fillColor=none;rotation=-60;" vertex="1" parent="1">
          <mxGeometry x="2619" y="407.0015242270663" width="80" height="30" as="geometry" />
        </mxCell>
        <mxCell id="HRIiSkAlnpVYVjrPhQSs-71" value="&lt;font style=&quot;font-size: 8px;&quot;&gt;fecha_hasta&lt;/font&gt;" style="text;html=1;align=center;verticalAlign=middle;resizable=0;points=[];autosize=1;strokeColor=none;fillColor=none;rotation=-60;" vertex="1" parent="1">
          <mxGeometry x="2641" y="408.0015242270663" width="80" height="30" as="geometry" />
        </mxCell>
      </root>
    </mxGraphModel>
  </diagram>
</mxfile>
